<svg xmlns="http://www.w3.org/2000/svg" width="200" height="200" style="background:#2c2827" viewBox="0 0 200 200">
  <g fill="#FFF" fill-rule="evenodd">
    <path d="M88.8279298 50L58.8993159 50 58.8993159 60.0480274 65.1152588 60.0480274 65.1152588 56.294454 78.2378049 56.294454 59.4748662 88.8639222 57 93.2527158 88.8279298 93.2527158 88.8279298 86.9582619 67.5901249 86.9582619 85.7199584 55.6592338 88.8279298 50zM108.857079 93.2527158L132.56975 93.2527158 132.56975 87.0160091 108.857079 87.0160091M108.857079 74.4848485L125.087597 74.4848485 125.087597 68.1903945 108.857079 68.1903945M132.56975 56.294454L132.56975 50 108.857079 50 108.857079 56.294454 132.56975 56.294454zM81.0580012 130.210978C82.899762 127.727844 83.5328673 125.244711 83.5328673 122.068611 83.5328673 116.98685 81.1155562 112.598056 77.8924747 110.114923 75.3024985 108.90223 72.3096371 107.574042 65.3454789 107.574042L57.2302201 107.574042 57.2302201 113.868496 65.9785842 113.868496C69.1441106 113.868496 71.6189768 113.810749 73.5182927 115.138937 75.3600535 117.044597 76.6262641 119.52773 76.6262641 122.703831 76.6262641 125.186964 76.1082689 127.727844 74.093843 129.633505 71.6189768 131.481418 68.5685604 131.481418 65.3454789 131.481418L62.8130577 131.481418 75.3600535 151 82.899762 151 71.6189768 134.657519C75.3600535 134.022298 79.1011303 133.387078 81.0580012 130.210978zM99.2006246 129.575758C99.2006246 116.236135 109.502974 107.63179 121.071535 107.63179 133.2732 107.63179 143 117.333333 143 129.575758 143 141.182962 133.2732 150.942253 121.071535 150.942253 108.409429 150.942253 99.2006246 141.182962 99.2006246 129.575758zM105.877008 128.998285L105.877008 129.575758C105.877008 138.122356 111.977841 144.878788 121.071535 144.878788 130.222784 144.878788 136.323617 137.60263 136.323617 129.575758 136.323617 121.02916 130.222784 113.695254 121.071535 113.695254 111.977841 113.695254 105.877008 121.02916 105.877008 128.998285zM161.834961 156.75293C161.834961 157.649419 161.581546 158.333494 161.074707 158.805176 160.567869 159.276858 159.851567 159.512695 158.925781 159.512695 158.005855 159.512695 157.269046 159.203616 156.715332 158.585449 156.161618 157.967282 155.884766 157.125005 155.884766 156.058594L155.884766 155.091797C155.884766 154.060542 156.164548 153.235843 156.724121 152.617676 157.283694 151.999509 158.017574 151.69043 158.925781 151.69043 159.863286 151.69043 160.583982 151.930662 161.087891 152.411133 161.591799 152.891604 161.84375 153.568355 161.84375 154.441406L160.560547 154.441406C160.560547 153.861325 160.421388 153.446779 160.143066 153.197754 159.864745 152.948729 159.458987 152.824219 158.925781 152.824219 158.374997 152.824219 157.941408 153.026365 157.625 153.430664 157.308592 153.834963 157.150391 154.397457 157.150391 155.118164L157.150391 156.111328C157.150391 156.814457 157.308592 157.368162 157.625 157.772461 157.941408 158.17676 158.374997 158.378906 158.925781 158.378906 159.464846 158.378906 159.870604 158.255861 160.143066 158.009766 160.415529 157.763671 160.551758 157.34473 160.551758 156.75293L161.834961 156.75293zM153.810547 155.592773C153.810547 156.600591 154.04492 157.533687 154.513672 158.39209 154.982424 159.250493 155.619625 159.922849 156.425293 160.40918 157.230961 160.89551 158.102534 161.138672 159.040039 161.138672 159.977544 161.138672 160.847652 160.89551 161.650391 160.40918 162.453129 159.922849 163.088865 159.250493 163.557617 158.39209 164.02637 157.533687 164.260742 156.600591 164.260742 155.592773 164.260742 154.596675 164.029299 153.673832 163.566406 152.824219 163.103513 151.974605 162.469242 151.305178 161.663574 150.815918 160.857906 150.326658 159.983403 150.082031 159.040039 150.082031 158.102534 150.082031 157.229496 150.323728 156.420898 150.807129 155.612301 151.29053 154.9751 151.959957 154.509277 152.81543 154.043455 153.670903 153.810547 154.596675 153.810547 155.592773zM152.799805 155.592773C152.799805 154.409174 153.073728 153.310552 153.621582 152.296875 154.169436 151.283198 154.928218 150.484866 155.897949 149.901855 156.867681 149.318845 157.915033 149.027344 159.040039 149.027344 160.165045 149.027344 161.210933 149.318845 162.177734 149.901855 163.144536 150.484866 163.901853 151.283198 164.449707 152.296875 164.997561 153.310552 165.271484 154.409174 165.271484 155.592773 165.271484 156.747076 165.007815 157.82812 164.480469 158.835938 163.953122 159.843755 163.204595 160.653806 162.234863 161.266113 161.265132 161.878421 160.200201 162.18457 159.040039 162.18457 157.885736 162.18457 156.823735 161.881351 155.854004 161.274902 154.884272 160.668454 154.132815 159.861333 153.599609 158.853516 153.066404 157.845698 152.799805 156.758795 152.799805 155.592773z"/>
  </g>
</svg>
