<?xml version="1.0" encoding="utf-8"?>

<svg version="1.1" id="layer" xmlns="http://www.w3.org/2000/svg" xmlns:xlink="http://www.w3.org/1999/xlink" x="0px" y="0px"
	 viewBox="-393 262.3 55 71" style="enable-background:new -393 262.3 55 71;" xml:space="preserve">
<style type="text/css">
	.st0{fill:#A6A6A6;}
	.st1{fill:url(#logo_1_);}
	.st3{fill:none;stroke:#FFFFFF;stroke-width:2;stroke-linejoin:round;stroke-miterlimit:10;}
</style>
<path id="text" class="st0" d="M-388.8,319.4c2.4,0,3.6-1.6,3.8-3.1h-1.6c-0.3,0.9-1.1,1.6-2.2,1.6c-1.5,0-2.4-1.2-2.4-2.7v-0.8
	c0-1.5,1-2.7,2.4-2.7c1.1,0,1.9,0.6,2.1,1.5h1.7c-0.2-1.5-1.5-3-3.8-3c-2.5,0-4.2,1.8-4.2,4.3v0.5
	C-393,317.6-391.3,319.4-388.8,319.4z M-381.2,317.8v-7.3h-1.7v8.8h5.9v-1.5H-381.2z M-369.1,319.2h1.7l-3.6-8.8v0h-1.4l0,0
	l-3.6,8.8h1.7l0.8-2h3.5L-369.1,319.2z M-372.9,315.7l1.2-2.9l1.2,2.9H-372.9z M-360.9,319.2h1.9l-1.8-3.5c0.9-0.4,1.6-1.4,1.6-2.6
	c0-1.8-1.1-2.8-2.6-2.8h-4.2v8.8h1.7v-3.2h1.8L-360.9,319.2z M-364.3,311.9h2c0.7,0,1.3,0.5,1.3,1.4c0,0.8-0.7,1.4-1.5,1.4h-1.9
	V311.9z M-357.4,319.2h1.7v-8.8h-1.7V319.2z M-347.1,310.4h-7.2v1.5h2.7v7.3h1.7v-7.3h2.7V310.4z M-340.2,310.4l-2.1,3.8l-2.1-3.8
	h-1.9l3.2,5.5v3.4h1.7v-3.4l3.2-5.5H-340.2z M-386.3,323.4h-3.7v8.8h3.5c2.2,0,3.9-1.7,3.9-4.5C-382.5,325-384.1,323.4-386.3,323.4z
	 M-386.9,330.8h-1.4v-5.9h1.6c1.6,0,2.4,1.1,2.5,2.9C-384.2,329.6-385.1,330.8-386.9,330.8z M-378.7,330.8v-2.3h3.9V327h-3.9v-2.1
	h4.3v-1.5h-6v8.8h6.1v-1.5H-378.7z M-368.8,332.4c2.1,0,3.5-1.1,3.5-2.8c0-1.7-1-2.1-3.4-2.5c-0.8-0.1-1.8-0.3-1.8-1
	c0-0.8,0.6-1.3,1.7-1.3c1,0,1.7,0.6,1.7,1.5h1.7c0-1.9-1.2-3-3.3-3c-2.1,0-3.4,1.1-3.4,2.9c0,1.4,1,2,2.8,2.3
	c0.9,0.2,2.4,0.3,2.4,1.2c0,0.8-0.7,1.3-1.8,1.3c-1.2,0-2-0.6-2-1.5h-1.7C-372.4,331.3-371.1,332.4-368.8,332.4z M-363,332.2h1.7
	v-8.8h-1.7V332.2z M-355.1,332.4c2.5,0,3.8-1.8,3.8-3.5v-1.5h-3.8v1.5h2.1c0,1.4-1,2-2.1,2c-1.5,0-2.4-1.2-2.4-2.7v-0.8
	c0-1.6,1-2.7,2.4-2.7c1.1,0,1.8,0.6,2,1.5h1.7c-0.1-1.5-1.4-3-3.7-3c-2.5,0-4.2,1.7-4.2,4.3v0.5
	C-359.2,330.6-357.6,332.4-355.1,332.4z M-343.6,323.4v6l-3.8-6l-1.7,0v8.8h1.7v-5.9l3.8,5.9l1.7,0v-8.8H-343.6z"/>
<linearGradient id="logo_1_" gradientUnits="userSpaceOnUse" x1="-775.9135" y1="587.1078" x2="-774.4701" y2="588.6001" gradientTransform="matrix(38.8208 0 0 -35.269 29734.1738 21005.0566)">
	<stop  offset="0" style="stop-color:#3AA5F5"/>
	<stop  offset="1" style="stop-color:#BBF3FF"/>
</linearGradient>
<path id="logo" class="st1" d="M-365,297.5h-7.7c-1.1,0-2-0.9-2-2c0-1.1,0.9-2,2-2h7.7c7.6,0,13.7-6.1,13.7-13.6
	c0-7.5-6.2-13.6-13.7-13.6h-7.1c-5.4,0-9.8,4.3-9.8,9.7c0,5.3,4.4,9.7,9.8,9.7h7.1c3.2,0,5.8-2.6,5.8-5.8s-2.6-5.8-5.8-5.8h-6v5.8
	c0,1.1-0.9,2-2,2c-1.1,0-2-0.9-2-2v-7.8c0-1.1,0.9-2,2-2h8c5.5,0,9.9,4.4,9.9,9.8s-4.5,9.8-9.9,9.8h-7.1c-7.7,0-13.9-6.2-13.9-13.7
	c0-7.6,6.2-13.7,13.9-13.7h7.1c9.8,0,17.8,7.9,17.8,17.6C-347.2,289.6-355.2,297.5-365,297.5"/>
<path id="cover" stroke-dasharray="0 155 155 0" stroke-dashoffset="155"  stroke="#fff" fill="none" stroke-width="5" stroke-miterlimit="10" d="M-372.9,282.9v-10.9h8.5c0,0,6.9,0.8,6.9,7.9s-6.9,8-6.9,8s-7.5,0-9.9,0c-3.7,0-10-5.3-10-11.2
	c0-10.2,8.1-12,13.4-12c2.6,0,5.7,0,8.2,0c6.1,0,13.5,5.3,13.5,15.2c0,11.8-11.1,15.5-13.4,15.5c-2.3,0-13.3,0-13.3,0"/>

<path id="t1" stroke-dasharray="0 190 190 0" stroke-dashoffset="190"  stroke="#fff" fill="none" stroke-width="2" stroke-miterlimit="10" d="M-342.9,322.2v9.5l-5.3-8.5v9l-1.9-5.8l-1.7,0.5c0,0-0.8-2.9-3.4-2.9c-2.1,0-3.2,1.5-3.2,3.8
	s1.4,3.9,2.8,3.9s3.6,0.2,3.6-3.3h-4.5l-5.6-6.2v10l-4.1-6c0,0,0.1-2.2-2.5-2.2s-2.3,1.4-2.3,2.2c0,0.6,0.9,1.3,2.3,1.6
	c1.4,0.3,3,1,2.8,2.4c-0.2,1.4-2.8,1.4-2.8,1.4s-2.8,0-2.8-2.2c0-2.1-2.7-5.4-2.7-5.4l-5.3-0.1l0.2,3.8h4.6l-4.6-0.3l-0.3,3.9
	l5.8,0.1l-10.3-9l-5-0.1v1.8c0,0,5.9-1.7,5.9,3.9c0,4.6-5.9,3.4-5.9,3.4l0.1-10"/>

<path id="t2" stroke-dasharray="0 230 230 0" stroke-dashoffset="230"  stroke="#fff" fill="none" stroke-width="2" stroke-miterlimit="10" d="M-345.8,309.8l3.2,5.4l0.6-5h2.6l-3.1,5.4l0.1,3.7l-4.8-8.3l-7.1-0.1l3.6-0.6v9.4l-5.8-10.5v10.1
	l-3.4-0.2l-2.2-3.9c0,0,1.9-0.1,1.9-2c0-2.3-1.9-2.2-1.9-2.2h-3.1v8.1l-1.4-4.1h7.7v-7.7l-12.7,2.8l-2.6,6.2l4.9,0.1l1,2.7h-6.7
	l1.8-3.5h3.8l-3-6.4l-9.7,0.5v8.5h5.1l-0.3,2.7l-6.9-1.6v-6.1h-1.7c0,0-0.7-2.4-3-2.4c-2.3,0-3.3,2.2-3.3,3.8s0.9,3.8,3.3,3.8
	c2.4,0,3-1.4,3-2.2"/>

  <animate
           xlink:href="#cover"
           attributeName="stroke-dashoffset"
           from="155"
           to="0"
           dur="1.8s"
           begin="0.6s"
           calcMode="spline"
           keyTimes="0;1"
           keySplines="0.165, 0.84, 0.44, 1"
           fill="freeze"
           id="circ-anim"/>
  <animate
           xlink:href="#t1"
           attributeName="stroke-dashoffset"
           from="190"
           to="0"
           dur="1.8s"
           begin="0.3s"
           calcMode="spline"
           keyTimes="0;1"
           keySplines="0.785, 0.135, 0.15, 0.86"
           fill="freeze"
           id="circ-anim2"/>
  <animate
           xlink:href="#t2"
           attributeName="stroke-dashoffset"
           from="230"
           to="0"
           dur="2.0s"
           begin="0.4s"
           calcMode="spline"
           keyTimes="0;1"
           keySplines="0.785, 0.135, 0.15, 0.86"
           fill="freeze"
           id="circ-anim3"/>

</svg>
